<?xml version="1.0" encoding="iso-8859-1"?>
<!-- Generator: Adobe Illustrator 17.1.0, SVG Export Plug-In . SVG Version: 6.00 Build 0)  -->
<!DOCTYPE svg PUBLIC "-//W3C//DTD SVG 1.1//EN" "http://www.w3.org/Graphics/SVG/1.1/DTD/svg11.dtd">
<svg xmlns="http://www.w3.org/2000/svg" xmlns:xlink="http://www.w3.org/1999/xlink" version="1.1" id="Capa_1" x="0px" y="0px" viewBox="0 0 465 465" style="enable-background:new 0 0 465 465;" xml:space="preserve" width="512px" height="512px">
<g>
	<path d="M114.277,164.39l53.699,44.779l-17.111,67.743c-1.728,6.656,0.245,13.005,5.148,16.566   c2.403,1.746,5.226,2.616,8.157,2.616c3.048,0,6.213-0.94,9.146-2.813l26.841-16.886c3.506-2.206,4.56-6.837,2.354-10.343   c-2.206-3.507-6.837-4.563-10.342-2.354l-26.748,16.828l18.252-72.26c0.707-2.797-0.253-5.75-2.468-7.597l-57.239-47.731   l74.363-4.97c2.878-0.192,5.39-2.018,6.462-4.695L232.5,74.086l27.706,69.188c1.072,2.678,3.585,4.503,6.463,4.695l74.364,4.97   l-57.24,47.731c-2.215,1.847-3.174,4.8-2.468,7.597l18.251,72.26l-63.082-39.688c-2.44-1.534-5.547-1.536-7.988,0l-11.335,7.131   c-3.506,2.206-4.56,6.836-2.354,10.343c2.206,3.503,6.835,4.559,10.342,2.354l7.341-4.619l59.141,37.208   c5.796,3.698,12.441,3.783,17.347,0.223c4.902-3.563,6.875-9.91,5.159-16.519l-17.123-67.791l53.662-44.748   c5.31-4.369,7.444-10.665,5.572-16.425c-1.871-5.766-7.299-9.604-14.116-10.016l-69.765-4.663l-25.975-64.864   c-2.515-6.399-7.842-10.375-13.902-10.375c-6.061,0-11.388,3.976-13.884,10.33l-25.994,64.909l-69.715,4.66   c-6.865,0.414-12.292,4.252-14.164,10.015C106.87,153.757,109.005,160.052,114.277,164.39z" fill="#222222"/>
	<path d="M414.886,0H50.114c-4.142,0-7.5,3.357-7.5,7.5v450c0,2.73,1.484,5.245,3.874,6.565c2.39,1.319,5.31,1.236,7.62-0.217   L232.5,351.615l178.391,112.233c1.219,0.766,2.605,1.151,3.994,1.151c1.247,0,2.496-0.311,3.626-0.935   c2.391-1.32,3.874-3.835,3.874-6.565V7.5C422.386,3.357,419.028,0,414.886,0z M407.386,443.921L236.494,336.406   c-2.441-1.535-5.547-1.534-7.987,0L57.614,443.921V15h349.771V443.921z" fill="#222222"/>
</g>
<g>
</g>
<g>
</g>
<g>
</g>
<g>
</g>
<g>
</g>
<g>
</g>
<g>
</g>
<g>
</g>
<g>
</g>
<g>
</g>
<g>
</g>
<g>
</g>
<g>
</g>
<g>
</g>
<g>
</g>
</svg>
